<svg xmlns="http://www.w3.org/2000/svg" viewBox="0 0 64 64" xml:space="preserve" style="fill-rule:evenodd;clip-rule:evenodd;stroke-linecap:round;stroke-linejoin:round;stroke-miterlimit:2"><path fill="#fff" d="M19 17h-3.228A4.773 4.773 0 0 0 11 21.772v24.456A4.773 4.773 0 0 0 15.772 51h32.456A4.773 4.773 0 0 0 53 46.228V21.772A4.773 4.773 0 0 0 48.228 17H45" style="fill:#9a9a9a;stroke-width:2px"/><path d="M42 47.024h4.072A2.928 2.928 0 0 0 49 44.096V39M42 17H22M11 25h42M22 17v-2.5a1.503 1.503 0 0 0-1.5-1.5 1.503 1.503 0 0 0-1.5 1.5v5a1.503 1.503 0 0 0 1.5 1.5M45 17v-2.5a1.503 1.503 0 0 0-1.5-1.5 1.503 1.503 0 0 0-1.5 1.5v5a1.503 1.503 0 0 0 1.5 1.5M40 32a3 3 0 0 0-3-3H27a3 3 0 0 0-3 3v6.594a7.5 7.5 0 0 0 4.495 6.872L32 47l3.505-1.534A7.5 7.5 0 0 0 40 38.594V32z" style="fill:none;stroke:#fff;stroke-width:2px"/><path d="m28.75 37.248 2.5 2 4-3.5" style="fill:#fff;stroke-width:2px"/></svg>