<svg xmlns="http://www.w3.org/2000/svg" width="6" height="10" viewBox="0 0 6 10">
  <metadata><?xpacket begin="﻿" id="W5M0MpCehiHzreSzNTczkc9d"?>
<x:xmpmeta xmlns:x="adobe:ns:meta/" x:xmptk="Adobe XMP Core 5.6-c142 79.160924, 2017/07/13-01:06:39        ">
   <rdf:RDF xmlns:rdf="http://www.w3.org/1999/02/22-rdf-syntax-ns#">
      <rdf:Description rdf:about=""/>
   </rdf:RDF>
</x:xmpmeta>
                                                                                                    
                                                                                                    
                                                                                                    
                                                                                                    
                                                                                                    
                                                                                                    
                                                                                                    
                                                                                                    
                                                                                                    
                                                                                                    
                                                                                                    
                                                                                                    
                                                                                                    
                                                                                                    
                                                                                                    
                                                                                                    
                                                                                                    
                                                                                                    
                                                                                                    
                                                                                                    
                           
<?xpacket end="w"?></metadata>
<defs>
    <style>
      .cls-1 {
        fill: #243f4d;
        fill-rule: evenodd;
      }
    </style>
  </defs>
  <path class="cls-1" d="M0.472,9.538A0.463,0.463,0,0,0,.8,9.4L5.024,5.133,5.037,5.12a0.516,0.516,0,0,0,.1-0.144s0,0,0,0a0.537,0.537,0,0,0,.045-0.217v0a0.541,0.541,0,0,0-.044-0.211h0a0.525,0.525,0,0,0-.1-0.148L5.024,4.384,0.8,0.119a0.46,0.46,0,0,0-.679.02A0.527,0.527,0,0,0-.008.49,0.527,0.527,0,0,0,.141.862L4,4.758l-3.857,3.9a0.538,0.538,0,0,0-.018.724A0.466,0.466,0,0,0,.472,9.538Z"/>
</svg>
