<svg xmlns="http://www.w3.org/2000/svg" width="22" height="9" viewBox="0 0 22 9">
  <metadata><?xpacket begin="﻿" id="W5M0MpCehiHzreSzNTczkc9d"?>
<x:xmpmeta xmlns:x="adobe:ns:meta/" x:xmptk="Adobe XMP Core 5.6-c142 79.160924, 2017/07/13-01:06:39        ">
   <rdf:RDF xmlns:rdf="http://www.w3.org/1999/02/22-rdf-syntax-ns#">
      <rdf:Description rdf:about=""/>
   </rdf:RDF>
</x:xmpmeta>                         
<?xpacket end="w"?></metadata>
<defs>
    <style>
      .cls-1 {
        fill: #a3bbc8;
        fill-rule: evenodd;
      }
    </style>
  </defs>
  <path class="cls-1" d="M21.7,3.526l0.008,0H4.756l0.1-2.858A0.291,0.291,0,0,0,4.94.465a0.288,0.288,0,0,0-.084-0.2L4.684,0.087a0.289,0.289,0,0,0-.407,0L0.084,4.3A0.288,0.288,0,0,0,0,4.5a0.284,0.284,0,0,0,.084.2L4.276,8.92a0.292,0.292,0,0,0,.407,0l0.173-.174a0.285,0.285,0,0,0,.084-0.2,0.276,0.276,0,0,0-.084-0.2L4.743,5.478H21.708A0.3,0.3,0,0,0,22,5.181V3.812A0.293,0.293,0,0,0,21.7,3.526Z"/>
</svg>
