<svg xmlns="http://www.w3.org/2000/svg" width="22" height="9" viewBox="0 0 22 9">
  <metadata><?xpacket begin="﻿" id="W5M0MpCehiHzreSzNTczkc9d"?>
<x:xmpmeta xmlns:x="adobe:ns:meta/" x:xmptk="Adobe XMP Core 5.6-c142 79.160924, 2017/07/13-01:06:39        ">
   <rdf:RDF xmlns:rdf="http://www.w3.org/1999/02/22-rdf-syntax-ns#">
      <rdf:Description rdf:about=""/>
   </rdf:RDF>
</x:xmpmeta>
                                                                                                    
                                                                                                    
                                                                                                    
                                                                                                    
                                                                                                    
                                                                                                    
                                                                                                    
                                                                                                    
                                                                                                    
                                                                                                    
                                                                                                    
                                                                                                    
                                                                                                    
                                                                                                    
                                                                                                    
                                                                                                    
                                                                                                    
                                                                                                    
                                                                                                    
                                                                                                    
                           
<?xpacket end="w"?></metadata>
<defs>
    <style>
      .cls-1 {
        fill: #a3bbc8;
        fill-rule: evenodd;
      }
    </style>
  </defs>
  <path class="cls-1" d="M0.3,5.473l-0.008,0H17.244l-0.1,2.858a0.292,0.292,0,0,0,0,.41l0.173,0.173a0.289,0.289,0,0,0,.407,0L21.916,4.7A0.288,0.288,0,0,0,22,4.5a0.284,0.284,0,0,0-.084-0.2L17.724,0.08a0.292,0.292,0,0,0-.407,0l-0.173.174a0.285,0.285,0,0,0-.084.2,0.275,0.275,0,0,0,.084.2l0.113,2.864H0.292a0.3,0.3,0,0,0-.292.3v1.37A0.293,0.293,0,0,0,.3,5.473Z"/>
</svg>
