<svg xmlns="http://www.w3.org/2000/svg" width="22" height="18" viewBox="0 0 22 18">
  <defs>
    <style>
      .cls-1 {
        fill: #fff;
        fill-rule: evenodd;
      }
    </style>
  </defs>
  <path id="Forma_1" data-name="Forma 1" class="cls-1" d="M21.99,5.82a6.211,6.211,0,0,0-1.849-4.1A5.873,5.873,0,0,0,16,0c-2.311,0-3.948,1.785-4.827,2.745l-0.156.17-0.083-.094C10.132,1.9,8.46,0,6,0A5.873,5.873,0,0,0,1.859,1.72,6.211,6.211,0,0,0,.01,5.82a6.829,6.829,0,0,0,1.27,4.338,29.14,29.14,0,0,0,4.763,4.748C7.749,16.316,9.994,18,11.009,18c1.031,0,3.269-1.679,4.965-3.087a29.021,29.021,0,0,0,4.746-4.754A6.9,6.9,0,0,0,21.99,5.82ZM19.614,9.43a27.029,27.029,0,0,1-4.43,4.417c-2.407,2-3.831,2.8-4.173,2.826-0.341-.035-1.77-0.833-4.188-2.842a27.1,27.1,0,0,1-4.437-4.4A5.587,5.587,0,0,1,1.332,5.891,4.807,4.807,0,0,1,6,1.322c1.863,0,3.216,1.543,3.943,2.37A1.518,1.518,0,0,0,11,4.447a1.719,1.719,0,0,0,1.151-.81C12.945,2.772,14.273,1.322,16,1.322a4.807,4.807,0,0,1,4.666,4.569A5.528,5.528,0,0,1,19.614,9.43Z"/>
</svg>
